<svg xmlns="http://www.w3.org/2000/svg" viewBox="0 0 64 64">
  <path d="M32 4v8M16 9l5 7M48 9l-5 7M8 22l8 4M56 22l-8 4" fill="none" stroke="#c9502a" stroke-width="3.5" stroke-linecap="round"/>
  <path d="M26 24c-2.5-2.5-6.5-2.5-9 0s-2.5 6.5 0 9l11 11c5.5 5.5 14.5 5.5 20 0s5.5-14.5 0-20L37 13c-1.7-1.7-4.3-1.7-6 0s-1.7 4.3 0 6l8 8"
        fill="#f0c896" stroke="#8f3517" stroke-width="3" stroke-linecap="round" stroke-linejoin="round"/>
  <path d="M32 30l-8-8c-1.7-1.7-4.3-1.7-6 0s-1.7 4.3 0 6"
        fill="#f0c896" stroke="#8f3517" stroke-width="3" stroke-linecap="round" stroke-linejoin="round"/>
</svg>
