<svg xmlns="http://www.w3.org/2000/svg" viewBox="0 0 64 64">
  <path d="M32 56c-10.5 0-18-7-18-17 0-7.5 4.5-12.5 8-17 .8 3 2.2 5 4.5 6.5C26 21 27 12 34 6c-.5 6.5 2.5 10.5 7 15 4.2 4.2 9 8.8 9 18 0 10-7.5 17-18 17Z"
        fill="#c9502a" stroke="#8f3517" stroke-width="3" stroke-linejoin="round"/>
  <path d="M32 56c-5.2 0-9-3.6-9-8.6 0-4.3 2.6-6.9 5.3-9.9 1.1 1.8 2.4 2.8 4.2 3.4-.6-3 .4-6.3 3.5-9 .4 3.6 2 5.7 3.7 8 1.6 2.2 3.3 4.4 3.3 7.5 0 5-3.8 8.6-9 8.6Z"
        fill="#f0a24a" stroke="#8f3517" stroke-width="2.5" stroke-linejoin="round"/>
</svg>
