<svg xmlns="http://www.w3.org/2000/svg" viewBox="0 0 64 64">
  <circle cx="32" cy="32" r="25" fill="#f6e8d6" stroke="#8f3517" stroke-width="3"/>
  <path d="M17 26c1.5-3 5.5-3 7 0M40 26c1.5-3 5.5-3 7 0" fill="none" stroke="#8f3517" stroke-width="3" stroke-linecap="round"/>
  <path d="M19 36h26c0 8-5.8 13-13 13s-13-5-13-13Z" fill="#8f3517" stroke="#8f3517" stroke-width="3" stroke-linejoin="round"/>
  <path d="M24 47.5c2.3-2.7 5-3.6 8-3.6s5.7.9 8 3.6" fill="#c9502a"/>
  <path d="M10 34c-2.6 1.5-4.3 3.9-3.5 6.7.7 2.5 3.2 3.9 5.8 3.2 2.7-.7 4.1-3.2 3.3-5.8-.6-2.2-3-4.5-5.6-4.1ZM54 34c2.6 1.5 4.3 3.9 3.5 6.7-.7 2.5-3.2 3.9-5.8 3.2-2.7-.7-4.1-3.2-3.3-5.8.6-2.2 3-4.5 5.6-4.1Z"
        fill="#7fb8d8" stroke="#8f3517" stroke-width="2.5" stroke-linejoin="round"/>
</svg>
