<svg xmlns="http://www.w3.org/2000/svg" viewBox="0 0 64 64">
  <circle cx="32" cy="32" r="26" fill="#c9502a" stroke="#8f3517" stroke-width="3"/>
  <circle cx="32" cy="33" r="17" fill="#f0c896" stroke="#8f3517" stroke-width="3"/>
  <circle cx="25" cy="29" r="2.6" fill="#8f3517"/>
  <circle cx="39" cy="29" r="2.6" fill="#8f3517"/>
  <path d="M32 35.5l-3 3.2c-.9 1 0 2.3 3 2.3s3.9-1.3 3-2.3Z" fill="#8f3517"/>
  <path d="M32 41v3.5M32 44.5c-2 2.5-4.5 3-7 2M32 44.5c2 2.5 4.5 3 7 2" fill="none" stroke="#8f3517" stroke-width="2.4" stroke-linecap="round"/>
  <path d="M12 20c2-3.5 5-6 8.5-7.5M52 20c-2-3.5-5-6-8.5-7.5" fill="none" stroke="#8f3517" stroke-width="2.6" stroke-linecap="round"/>
</svg>
