<svg xmlns="http://www.w3.org/2000/svg" viewBox="0 0 64 64">
  <path d="M32 14c-5-4-12-5.5-20-5v38c8-.5 15 1 20 5 5-4 12-5.5 20-5V9c-8-.5-15 1-20 5Z"
        fill="#f6e8d6" stroke="#8f3517" stroke-width="3" stroke-linejoin="round"/>
  <path d="M32 14v38" stroke="#8f3517" stroke-width="3" stroke-linecap="round"/>
  <path d="M17 19c3.5-.2 6.7.3 10 1.5M17 26c3.5-.2 6.7.3 10 1.5M17 33c3.5-.2 6.7.3 10 1.5M37 20.5c3.3-1.2 6.5-1.7 10-1.5M37 27.5c3.3-1.2 6.5-1.7 10-1.5"
        fill="none" stroke="#c9502a" stroke-width="2.4" stroke-linecap="round"/>
</svg>
