<svg xmlns="http://www.w3.org/2000/svg" viewBox="0 0 64 64">
  <circle cx="32" cy="32" r="25" fill="#f6e8d6" stroke="#8f3517" stroke-width="3"/>
  <path d="M20.5 31.5c-5-3.6-8.5-6.6-8.5-10.4 0-2.9 2.3-5.1 5.1-5.1 1.4 0 2.7.6 3.4 1.7.7-1.1 2-1.7 3.4-1.7 2.8 0 5.1 2.2 5.1 5.1 0 3.8-3.5 6.8-8.5 10.4ZM43.5 31.5c-5-3.6-8.5-6.6-8.5-10.4 0-2.9 2.3-5.1 5.1-5.1 1.4 0 2.7.6 3.4 1.7.7-1.1 2-1.7 3.4-1.7 2.8 0 5.1 2.2 5.1 5.1 0 3.8-3.5 6.8-8.5 10.4Z"
        fill="#c9502a" stroke="#8f3517" stroke-width="2.5" stroke-linejoin="round"/>
  <path d="M22 41c2.8 3.6 6.1 5.4 10 5.4s7.2-1.8 10-5.4" fill="none" stroke="#8f3517" stroke-width="3.5" stroke-linecap="round"/>
</svg>
